<svg class="home__blob" viewBox="0 0 400 400" xmlns="http://www.w3.org/2000/svg" xmlns:xlink="http://www.w3.org/1999/xlink">
    <mask id="myMask" mask-type="alpha">
        <path d="M43.2,-75.4C54.2,-68.5,60.1,-53.3,66.4,-39.4C72.7,-25.4,79.4,-12.7,81.7,1.3C84,15.4,81.9,30.7,73.2,40.4C64.4,50.1,49,54.1,35.7,62C22.4,69.9,11.2,81.7,-0.5,82.6C-12.2,83.5,-24.5,73.6,-35,64.1C-45.6,54.6,-54.4,45.5,-63.3,34.9C-72.2,24.3,-81.3,12.2,-80.5,0.5C-79.6,-11.2,-68.8,-22.4,-61.7,-36.1C-54.6,-49.9,-51.2,-66.3,-41.5,-73.9C-31.8,-81.5,-15.9,-80.5,0.1,-80.7C16.1,-80.8,32.2,-82.3,43.2,-75.4Z" transform="translate(200 200)"/>
    </mask>
    <g mask="url(#myMask)">
        <path d="M43.2,-75.4C54.2,-68.5,60.1,-53.3,66.4,-39.4C72.7,-25.4,79.4,-12.7,81.7,1.3C84,15.4,81.9,30.7,73.2,40.4C64.4,50.1,49,54.1,35.7,62C22.4,69.9,11.2,81.7,-0.5,82.6C-12.2,83.5,-24.5,73.6,-35,64.1C-45.6,54.6,-54.4,45.5,-63.3,34.9C-72.2,24.3,-81.3,12.2,-80.5,0.5C-79.6,-11.2,-68.8,-22.4,-61.7,-36.1C-54.6,-49.9,-51.2,-66.3,-41.5,-73.9C-31.8,-81.5,-15.9,-80.5,0.1,-80.7C16.1,-80.8,32.2,-82.3,43.2,-75.4Z" transform="translate(200 200)"/>
        <image class="home__blob-img" x="50" y="60" href="/assets/img/profile-pic.png"/>
    </g>
</svg>